inDegrees=no
num_controls=7
num_derivatives=13
num_iterations=151
num_multipliers=7
num_parameters=0
num_slacks=7
num_states=26
objective=0.543951
objective_accelerations=0.062490
objective_balance=0.003364
objective_effort=0.046902
objective_height=0.422015
objective_ligament=0.009180
solver_duration=1886.822469
status=Solve_Succeeded
success=true
DataType=double
version=3
OpenSimVersion=4.5
endheader
time	/jointset/ground_pelvis/pelvis_tilt/value	/jointset/ground_pelvis/pelvis_tx/value	/jointset/ground_pelvis/pelvis_ty/value	/jointset/hip_r/hip_flexion_r/value	/jointset/hip_r/hip_adduction_r/value	/jointset/hip_r/hip_rotation_r/value	/jointset/back/lumbar_extension/value	/jointset/patellofemoral_r/patellar_flexion_r/value	/jointset/knee_r/knee_flexion_r/value	/jointset/knee_r/knee_adduction_r/value	/jointset/knee_r/knee_rotation_r/value	/jointset/ankle_r/ankle_angle_r/value	/jointset/subtalar_r/subtalar_angle_r/value	/jointset/ground_pelvis/pelvis_tilt/speed	/jointset/ground_pelvis/pelvis_tx/speed	/jointset/ground_pelvis/pelvis_ty/speed	/jointset/hip_r/hip_flexion_r/speed	/jointset/hip_r/hip_adduction_r/speed	/jointset/hip_r/hip_rotation_r/speed	/jointset/back/lumbar_extension/speed	/jointset/patellofemoral_r/patellar_flexion_r/speed	/jointset/knee_r/knee_flexion_r/speed	/jointset/knee_r/knee_adduction_r/speed	/jointset/knee_r/knee_rotation_r/speed	/jointset/ankle_r/ankle_angle_r/speed	/jointset/subtalar_r/subtalar_angle_r/speed	/forceset/tau_hip_flexion_r	/forceset/tau_hip_adduction_r	/forceset/tau_hip_rotation_r	/forceset/tau_knee_flexion_r	/forceset/tau_ankle_angle_r	/forceset/tau_subtalar_angle_r	/forceset/tau_lumbar_extension	lambda_cid13_p0	lambda_cid14_p0	lambda_cid14_p1	lambda_cid14_p2	lambda_cid14_p3	lambda_cid14_p4	lambda_cid14_p5	/jointset/ground_pelvis/pelvis_tilt/accel	/jointset/ground_pelvis/pelvis_tx/accel	/jointset/ground_pelvis/pelvis_ty/accel	/jointset/hip_r/hip_flexion_r/accel	/jointset/hip_r/hip_adduction_r/accel	/jointset/hip_r/hip_rotation_r/accel	/jointset/back/lumbar_extension/accel	/jointset/patellofemoral_r/patellar_flexion_r/accel	/jointset/knee_r/knee_flexion_r/accel	/jointset/knee_r/knee_adduction_r/accel	/jointset/knee_r/knee_rotation_r/accel	/jointset/ankle_r/ankle_angle_r/accel	/jointset/subtalar_r/subtalar_angle_r/accel	gamma_cid13_p0	gamma_cid14_p0	gamma_cid14_p1	gamma_cid14_p2	gamma_cid14_p3	gamma_cid14_p4	gamma_cid14_p5
0.5	-0.1952462978145441	0.005385487506522994	0.8089884734459238	0.9804613797342239	-0.22264503659732	-0.1188623482968684	-0.3397612020790421	0.8778866084704317	0.877886608470414	-0.0139522757892849	0.1745280652236072	0.2744421000803382	0.06975456304365746	-0.5033720744520513	-0.1729643604323736	-0.558783961164825	2.181872848312163	0.002470102820616472	0.2182565034903907	-0.5917284662110271	2.185519693376966	2.185519693376773	-0.4377561891046721	3.028259520714803e-07	0.617031757877728	0.1906329015328135	-0.1385569600841722	-0.02019520305944015	0.01278209452545479	-0.3656899939596644	0.09923237835305218	-0.004304853350355639	0.1779034686822061	-20.24875132323863	-9.08242392258215	-0.9854219198737204	-2.209337102936982	-3.105711560440937	-654.7830644543318	61.3891180060339	0.4549204653093341	0.6052152300107904	-0.5881179623338714	-1.321254831733112	-0.1725747928179155	-0.843000449456792	1.755776792052561	-1.395112191726382	-1.395112191726402	0.3291997108897291	-0.04237921685092454	-0.7071887828475033	-0.2562815772471165	-1.598070392019552e-07	-2.685394855946168e-08	2.171090068651017e-06	-8.481971099747515e-08	-2.352453487580653e-07	-1.611076983380873e-07	1.225056760569735e-06
0.51	-0.2002562660598572	0.00368634708053373	0.8033725468104901	1.00221063108905	-0.2226296985572838	-0.116723363453047	-0.3455903112426444	0.8996688260530514	0.8996688260530451	-0.01831280420485757	0.1745279981898918	0.2805759147043327	0.0716466452649161	-0.498549315136847	-0.1668423163897695	-0.5642710694611842	2.167684091377583	0.0005938286952132866	0.2095374382542952	-0.5740258222454216	2.170622977311001	2.170622977311018	-0.4343326354617944	-6.758801638183135e-06	0.6096447233938818	0.1877390358968746	-0.145638448855274	-0.01856157597934496	0.01282398512185466	-0.3702570142632967	0.09694561347785709	-0.003353191488100966	0.1842473782378335	-18.80145896988718	-10.08361123664853	-0.8976881658356207	-2.051677324821345	-2.825317863308988	-660.4309667889401	61.5662010017999	0.506786103380924	0.6188703348099348	-0.5094988190305602	-1.51169357027271	-0.195603696112236	-0.8870203667369885	1.787639838397493	-1.582047524294586	-1.582047524263132	0.351737909570397	0.0211547978804046	-0.7674867001702201	-0.3123339285431495	-1.523263181319286e-07	-5.718385614109014e-08	1.871064410370991e-06	-3.649367747236939e-07	-1.800858646294186e-07	-1.848696139374891e-07	1.106156114481499e-06
0.52	-0.2052158402242666	0.002049061363655468	0.797705650780944	1.023809193385341	-0.2226332132532434	-0.114671701422797	-0.3512403676386738	0.921293057232959	0.9212930572329657	-0.02263853614028417	0.1745280654266183	0.2866332537996854	0.07350850985546019	-0.4932932582714467	-0.1605934186101732	-0.5689778399872847	2.151735036604911	-0.001300444378619508	0.2007919407761579	-0.5559179126964997	2.153922412834513	2.153922412834739	-0.430796893075573	2.715691451070383e-05	0.6017366521493547	0.1845893753899006	-0.1527199376263746	-0.01692794889924817	0.01286587571825618	-0.3748240345669285	0.0946588486026624	-0.002401529625844078	0.1905912877934618	-17.35989844497133	-11.08802340201233	-0.8072321619683414	-1.898205523269271	-2.558085467992535	-666.1386770316734	61.79664828749256	0.5415799753485231	0.6305859774092211	-0.4320504082821119	-1.673314399351491	-0.1761745825038377	-0.8482868978651502	1.836829908715826	-1.755881873830994	-1.755881873830996	0.3516374595584556	-0.03418374810309563	-0.8113961349836382	-0.3074405514541403	-1.503073164883949e-07	-8.165179143273454e-08	1.660639212558862e-06	-5.859428543172879e-07	-1.407306917285893e-07	-1.944571489240746e-07	1.005993656625805e-06
0.53	-0.2101206941537362	0.000474791825491555	0.791995627481483	1.045239623752155	-0.2226557710004395	-0.112706882147859	-0.3567074867858125	0.9427414803948553	0.9427414803948233	-0.02692784535793092	0.1745282645493134	0.2926089520173645	0.07533753854089743	-0.4876058937417129	-0.1542494907956301	-0.5728927284869725	2.134070817238197	-0.003208069962229352	0.192165692777734	-0.537453498121383	2.135477207107722	2.135477207107909	-0.4270603280927154	2.004686366241097e-05	0.5933221471431884	0.1811800573590301	-0.1598792695554263	-0.01508090775840264	0.01286161382308048	-0.3791312629785278	0.09188367152441732	-0.001646670897877081	0.196931949542857	-15.92751439696037	-12.26949476058476	-0.8507401781260414	-1.703397903490837	-2.071318579444771	-671.9069513224097	61.77046184654425	0.5930489669946067	0.6379219056682436	-0.3511342567266293	-1.855021982001316	-0.1976042473147174	-0.8709542385162732	1.859110023372321	-1.931561938282981	-1.931561938288803	0.3855677650195	0.0170239981784077	-0.8686505135806342	-0.3629616598463456	-1.482422065221679e-07	-1.083508544328427e-07	1.41739413620847e-06	-8.238634935676352e-07	-9.745789676326927e-08	-2.015054327417416e-07	8.703699852862488e-07
